PathFileType	4	(X/Y/Z)	Patient4_TMGait_0pt5_02_right_18.trc.trc
DataRate	CameraRate	NumFrames	NumMarkers	Units	OrigDataRate	OrigDataStartFrame	OrigNumFrames
74.866310160428	74.866310160428	4	33	mm	74.866310160428	53	       141
Frame#	Time	Sacral			L.Shoulder			Chest			R.Shoulder			Neck			R.ASIS			L.ASIS			R.Thigh.Superior			R.Thigh.Lateral			R.Thigh.Inferior			R.Patella			L.Thigh.Superior			L.Thigh.Lateral			L.Thigh.Inferior			L.Patella			L.Shank.Superior			L.Shank.Lateral			L.Shank.Inferior			R.Shank.Superior			R.Shank.Lateral			R.Shank.Inferior			R.Heel			R.Midfoot.Superior			R.Midfoot.Lateral			R.Toe			L.Heel			L.Midfoot.Lateral			L.Midfoot.Superior			L.Toe			L.Elbow			L.Wrist			R.Elbow			R.Wrist			
		X1	Y1	Z1	X2	Y2	Z2	X3	Y3	Z3	X4	Y4	Z4	X5	Y5	Z5	X6	Y6	Z6	X7	Y7	Z7	X8	Y8	Z8	X9	Y9	Z9	X10	Y10	Z10	X11	Y11	Z11	X12	Y12	Z12	X13	Y13	Z13	X14	Y14	Z14	X15	Y15	Z15	X16	Y16	Z16	X17	Y17	Z17	X18	Y18	Z18	X19	Y19	Z19	X20	Y20	Z20	X21	Y21	Z21	X22	Y22	Z22	X23	Y23	Z23	X24	Y24	Z24	X25	Y25	Z25	X26	Y26	Z26	X27	Y27	Z27	X28	Y28	Z28	X29	Y29	Z29	X30	Y30	Z30	X31	Y31	Z31	X32	Y32	Z32	X33	Y33	Z33	

53	24.074571428571	600.998124537099	1021.392465366023	572.296002152946	811.008566575496	1438.047041461452	403.086517653988	913.714984241408	1351.053969158005	556.047007652817	848.712977830237	1427.367591824013	737.442676135421	825.362041856371	1492.938840875226	556.807383575101	824.639639419997	935.444574755495	679.770847234457	805.699828071668	969.278376953661	407.605010172893	855.057888942029	735.965355314662	647.598638722634	769.577006615705	631.809297176796	703.469758321922	845.106765679231	578.021430223500	622.412353155828	841.520425092423	489.807930036564	626.580030506013	877.303368888558	786.404522925072	430.750210374741	835.873704206996	665.006197725232	344.701965609935	932.750250534490	601.471361623519	411.515935698351	960.649777105117	534.623143077913	404.717374800847	941.797065307734	463.007234450204	389.848780556433	873.643336130398	340.242185740731	326.769771988691	949.887499101189	233.886439952446	383.144213995873	811.377649211445	402.460294527767	630.441368887223	735.459957084942	299.376648623039	686.702799033996	775.836975715288	205.200727097949	621.560052814193	638.039942614351	44.246976602859	579.665196723223	807.549968493321	96.569316762592	624.874953714469	717.364448048039	36.285811000247	659.108758190103	925.698638126968	42.698613054614	659.658046679492	854.951267034906	54.305966907056	406.940083090822	930.347148222411	66.058562791147	328.843570650371	1002.734811373886	139.315187131679	357.734383002825	1135.854248353115	110.497287788489	330.265167911393	708.408410180099	1097.142861987287	288.205277811051	706.531918574295	838.738764549216	266.450395714593	871.442677164493	1087.377126222101	868.005206725581	1052.407729165784	900.422989471116	861.044261337708	
54	24.087928571429	599.522650400363	1021.337834288921	573.114998432175	808.640850049368	1438.474064272436	403.686385716317	912.148572983663	1350.932400236646	555.724906601482	848.318754692662	1426.745678479640	737.701951433483	823.958802668180	1492.836317638690	557.455828846772	823.605639547712	935.393726875201	679.443899940816	803.460012227762	969.064099460509	407.239345564655	852.612804358778	735.480650904883	647.312419477513	766.571309430548	631.647672457388	703.513378779023	841.556871418973	577.364231472883	622.355578994622	837.328054189296	489.207703747849	626.501024458927	874.195397606791	785.833860344871	430.127829481836	832.686089624605	664.828369449515	343.696198181401	929.672461107433	601.061242051963	410.349287137354	958.075000696047	535.997263165272	403.966581485803	941.947556518536	465.350134413482	388.818564823258	879.430611195868	339.678546333319	325.569237486659	960.371548332669	236.802668656737	382.051753933012	806.696057496600	402.031272201180	630.354513751292	730.237578290384	299.362988598760	686.607514931943	769.994580545953	204.969614704653	621.465614357377	631.349942534946	44.333399849436	579.699080740075	800.870075743902	96.495007363761	624.789037072200	710.665532896759	36.311549348414	659.078394894161	918.996036807149	42.527914024598	659.693574318648	872.561011344349	54.390626105373	405.943136729139	948.473994273959	67.341722533328	328.451183594501	1018.373898702313	142.970698180611	357.186009167396	1152.631046480769	117.628187016376	331.527650688354	701.088510790396	1099.339223496347	288.679539450148	695.158785753021	841.034211788690	266.814077739736	878.244202667987	1087.863652096605	868.526445449532	1064.230817197005	906.057664234533	860.631753015503	
55	24.101285714286	598.133919594060	1021.320811942110	573.653185143183	806.336693276840	1438.989184372111	404.164968045790	910.566491119529	1350.947220685157	555.341423549275	847.747664233172	1426.206957016760	737.849696377665	822.474832968923	1492.807611566258	557.989754760153	822.632543275291	935.451985135150	679.023832657418	801.425727132756	968.854093993060	406.755561295736	850.112813323757	734.997165856340	647.028057641762	763.346070403264	631.553180502485	703.508283600515	837.792168437587	576.702444636023	622.302867172645	832.890619632002	488.666285126701	626.417488593103	871.327617021186	785.211218853102	429.417318947315	829.491449612826	664.513108489333	342.772872656145	926.732867318285	600.540767745800	409.093622690161	955.460423933294	537.095921776095	403.162594614078	941.670553824488	467.395532789931	387.773634511921	884.072872571572	339.314900602948	324.641415229340	969.223702401346	239.731785064789	381.031138550686	801.818271317921	401.668011836180	630.271427876333	724.825362367203	299.399705437995	686.493145425179	764.056854529852	204.799509545365	621.397107160225	624.646772590217	44.434064887956	579.736312439947	794.175530269820	96.429011727681	624.706913211396	703.956521451762	36.339922608681	659.046987206833	912.282551162230	42.374542740720	659.727930269681	887.801223559088	55.171284426418	405.402705515345	963.990846287600	68.979692883425	328.266254092093	1031.782369133290	146.584096919896	356.572540526558	1166.859748468265	124.138999528597	332.263418516919	694.047459808438	1101.643648378788	289.078502704362	684.795035690302	843.423696564336	267.223820343827	884.517390916063	1088.438587180212	868.636351373270	1075.165491535258	911.687913944382	859.872659524874	
56	24.114642857143	596.836727886342	1021.329914834404	573.917832709754	804.089390923029	1439.572531302536	404.509897074517	908.973143741972	1351.098200035659	554.892657005863	846.999726127502	1425.767604344187	737.880065464256	820.903842356947	1492.846597344099	558.392208644618	821.714104198319	935.602071750878	678.509212520448	799.598905678953	968.652894475037	406.165866306027	847.555587179498	734.519305221943	646.713844184530	759.941161730212	631.526898710560	703.456871913648	833.838634217972	576.046297629881	622.245339373487	828.243895879564	488.183428006847	626.330875654054	868.765400359546	784.592808636775	428.640891340864	826.378532577374	664.079486893906	341.956329881952	924.004385243558	599.964256245318	407.803534146774	952.917327639763	537.937893062957	402.307183408755	941.043299220254	469.088254791356	386.731910195032	887.523122472498	339.060837778991	323.979625056846	976.346013975750	242.449945464776	380.080006295717	796.772642250177	401.366800735751	630.190282637821	719.251501988315	299.487606317533	686.364481191496	758.036997312105	204.686615030637	621.353517013061	617.934186615956	44.548333088620	579.782214058750	787.475256604787	96.376958092179	624.640845767160	697.238672549517	36.371108569936	659.015981894960	905.560910346264	42.234539037190	659.762252105583	900.426121462545	56.346298839915	405.294283073352	976.640663533569	70.690166122861	328.241614761503	1042.765321784876	149.881817594207	355.863392326130	1178.379986053442	129.727835641689	332.367313751956	687.333108784738	1104.005018820274	289.403008020103	675.430202305489	845.833793134739	267.652807507801	890.212973851607	1089.090440663694	868.356051634430	1085.178929614028	917.279217976223	858.763922369379	
